<?xml version="1.0" encoding="UTF-8"?>
<svg version="1.1" xmlns="http://www.w3.org/2000/svg" width="253" height="277">
<path d="M0 0 C83.49 0 166.98 0 253 0 C253 91.41 253 182.82 253 277 C169.51 277 86.02 277 0 277 C0 185.59 0 94.18 0 0 Z " fill="#FEFEFE" transform="translate(0,0)"/>
<path d="M0 0 C2.64 0 5.28 0 8 0 C8 0.66 8 1.32 8 2 C8.70125 2.0825 9.4025 2.165 10.125 2.25 C15.13578217 3.55716057 18.21110959 5.95525325 21.3125 10.0625 C23.69186835 14.20436342 24.15813414 17.16471628 24.1875 21.875 C24.20167969 22.90367188 24.21585937 23.93234375 24.23046875 24.9921875 C23.99581369 28.05463488 23.29184572 30.23248861 22 33 C22.58007812 32.62746094 23.16015625 32.25492188 23.7578125 31.87109375 C24.53898437 31.39800781 25.32015625 30.92492187 26.125 30.4375 C26.89070313 29.96183594 27.65640625 29.48617187 28.4453125 28.99609375 C31.8403162 27.67235378 33.50366522 27.98563127 37 29 C39.59355542 30.34268135 42.02512973 31.71764209 44.5 33.25 C46.00381163 34.15640701 47.50772308 35.06264841 49.01171875 35.96875 C50.21320557 36.69964844 50.21320557 36.69964844 51.43896484 37.4453125 C56.04636744 40.24225623 60.67756141 42.99899053 65.3125 45.75 C66.26382813 46.31493164 67.21515625 46.87986328 68.1953125 47.46191406 C73.59488655 50.64690757 79.0252021 53.57971803 84.68359375 56.28125 C90.54122885 59.31700906 96.16675654 62.76214405 101.82226562 66.15625 C108.13069072 69.93494667 114.51919305 73.52520434 121 77 C117.94449702 80.14592477 114.8461301 81.89551372 111 84 C114.19668988 86.6486859 117.39486597 88.93992341 121 91 C117.76478258 93.48862878 114.40739705 95.75421558 111 98 C111.99 98.99 112.98 99.98 114 101 C113.67 101.66 113.34 102.32 113 103 C109 102 109 102 107.16308594 101.31298828 C104.12329643 100.87314515 102.76935917 101.88962611 100.140625 103.4296875 C99.19840088 103.97294678 98.25617676 104.51620605 97.28540039 105.07592773 C96.28371826 105.66962158 95.28203613 106.26331543 94.25 106.875 C92.14985942 108.09265463 90.04959872 109.3101021 87.94921875 110.52734375 C86.92489746 111.12659668 85.90057617 111.72584961 84.84521484 112.34326172 C81.27624878 114.42143262 77.6732051 116.43316457 74.0625 118.4375 C65.09443918 123.45612575 56.23963511 128.67163699 47.37109375 133.86328125 C46.43894043 134.40291504 45.50678711 134.94254883 44.54638672 135.49853516 C42.9926024 136.41471671 41.45307632 137.35644112 39.94189453 138.34130859 C37.16831996 140.1146025 35.50911711 141.03723315 32.17578125 140.79345703 C28.68733743 139.92188243 26.12991982 138.63626602 23.02734375 136.82421875 C21.89071289 136.16687744 20.75408203 135.50953613 19.58300781 134.83227539 C18.36777301 134.11746165 17.1526052 133.40253401 15.9375 132.6875 C14.67990908 131.95665869 13.42176498 131.22676845 12.16308594 130.49780273 C9.63149995 129.0303693 7.10252354 127.55859797 4.57568359 126.08300781 C-0.34775999 123.21054751 -5.29799507 120.38535274 -10.25 117.5625 C-11.50671509 116.84380737 -11.50671509 116.84380737 -12.78881836 116.1105957 C-18.88007562 112.62858658 -24.98977597 109.1801696 -31.11816406 105.76391602 C-33.81608768 104.25525616 -36.42606298 102.71595801 -39 101 C-41.02919843 101.25723969 -41.02919843 101.25723969 -43 102 C-44.485 102.495 -44.485 102.495 -46 103 C-46.33 101.68 -46.66 100.36 -47 99 C-46.01 98.505 -46.01 98.505 -45 98 C-48.3 96.02 -51.6 94.04 -55 92 C-51.77085357 88.77085357 -48.97169202 87.17318997 -45 85 C-48.19668988 82.3513141 -51.39486597 80.06007659 -55 78 C-50.5791932 74.13066399 -45.70744044 71.50993279 -40.5625 68.75 C-38.76773371 67.77565166 -36.97346529 66.80038571 -35.1796875 65.82421875 C-34.30022461 65.34645996 -33.42076172 64.86870117 -32.51464844 64.37646484 C-26.3285722 60.99033884 -20.19454999 57.49130183 -14.13134766 53.89013672 C-9.2146912 51 -9.2146912 51 -7 51 C-9.519167 44.30197951 -12.4541535 37.92826396 -15.73046875 31.56640625 C-17.96692251 27.04532896 -18.74636648 22.98975344 -18 18 C-15.88166769 12.13722967 -13.38374062 7.40025723 -8 4 C-7.01 3.34 -6.02 2.68 -5 2 C-2.3125 1.875 -2.3125 1.875 0 2 C0 1.34 0 0.68 0 0 Z " fill="#57A8EA" transform="translate(87,20)"/>
<path d="M0 0 C1.29066556 0.73353163 2.57689278 1.47490924 3.859375 2.22265625 C4.55901367 2.62307129 5.25865234 3.02348633 5.97949219 3.43603516 C11.67455781 6.70720982 17.32104208 10.06147128 22.96972656 13.41186523 C29.28475239 17.13807384 35.70521055 20.65718534 42.14282227 24.16601562 C49.15987592 28.00426435 56.0525717 32.03111185 62.9296875 36.11328125 C67.10928858 38.59150862 71.34364469 40.95839426 75.609375 43.28515625 C73.28440223 45.83168969 70.85340674 47.45994186 67.875 49.18359375 C66.92020752 49.73869629 65.96541504 50.29379883 64.98168945 50.86572266 C63.95132568 51.45788574 62.92096191 52.05004883 61.859375 52.66015625 C60.78969482 53.27938965 59.72001465 53.89862305 58.61791992 54.53662109 C49.52662486 59.7875299 40.39021881 64.95814056 31.2421875 70.109375 C25.58373536 73.29630801 19.9373403 76.50400858 14.296875 79.72265625 C13.46776611 80.19461426 12.63865723 80.66657227 11.78442383 81.15283203 C10.9880249 81.60770996 10.19162598 82.06258789 9.37109375 82.53125 C8.5929834 82.97194824 7.81487305 83.41264648 7.01318359 83.86669922 C5.30073501 84.87719345 3.61853023 85.93969439 1.95947266 87.03564453 C1.08726074 87.60395996 0.21504883 88.17227539 -0.68359375 88.7578125 C-1.46629639 89.28769775 -2.24899902 89.81758301 -3.05541992 90.36352539 C-5.390625 91.28515625 -5.390625 91.28515625 -7.93359375 90.57495117 C-9.14982422 89.93650269 -9.14982422 89.93650269 -10.390625 89.28515625 C-11.05811768 88.95032227 -11.72561035 88.61548828 -12.41333008 88.27050781 C-13.07228271 87.90924805 -13.73123535 87.54798828 -14.41015625 87.17578125 C-15.17279785 86.75804443 -15.93543945 86.34030762 -16.72119141 85.90991211 C-17.54022949 85.45624268 -18.35926758 85.00257324 -19.203125 84.53515625 C-20.07114746 84.0563501 -20.93916992 83.57754395 -21.83349609 83.08422852 C-29.82211881 78.65121511 -37.70717736 74.04645269 -45.58496094 69.42016602 C-51.66458575 65.85541986 -57.77740515 62.36798876 -63.953125 58.97265625 C-69.6683824 55.82356424 -75.34069748 52.61460809 -80.953125 49.28515625 C-81.91037476 48.72380981 -81.91037476 48.72380981 -82.88696289 48.15112305 C-87.27173251 45.52294123 -87.27173251 45.52294123 -88.390625 43.28515625 C-81.41178422 39.24691906 -74.42966044 35.21448037 -67.44114685 31.19300842 C-64.83825686 29.69517892 -62.23629482 28.19582592 -59.63720703 26.69140625 C-57.41258594 25.40410291 -55.18376607 24.12448934 -52.953125 22.84765625 C-52.31697266 22.47713135 -51.68082031 22.10660645 -51.02539062 21.72485352 C-48.24188818 20.14229769 -46.6529442 19.28515625 -43.390625 19.28515625 C-42.730625 21.26515625 -42.070625 23.24515625 -41.390625 25.28515625 C-42.06609375 25.46691406 -42.7415625 25.64867188 -43.4375 25.8359375 C-44.32953125 26.08730469 -45.2215625 26.33867188 -46.140625 26.59765625 C-47.02234375 26.84128906 -47.9040625 27.08492187 -48.8125 27.3359375 C-51.49771493 28.32458481 -53.29088582 29.34803924 -55.390625 31.28515625 C-56.57305909 36.44486864 -55.07837593 39.30762152 -52.390625 43.78515625 C-46.87196003 51.82033245 -41.81306207 56.58285041 -32.1875 58.81640625 C-29.53302306 59.26129065 -26.94996947 59.49342678 -24.265625 59.66015625 C-19.54969555 60.00559057 -16.35793139 61.61586954 -12.3984375 64.12890625 C-3.1257934 69.46879468 13.65296519 66.36560009 23.609375 64.28515625 C26.18307257 63.36772936 28.55314467 62.35259836 30.97265625 61.08984375 C32.609375 60.28515625 32.609375 60.28515625 34.609375 60.28515625 C34.81894543 56.76090928 34.81894543 56.76090928 33.69140625 53.484375 C31.94433655 49.9334716 31.33946223 46.10515051 30.48828125 42.2578125 C28.73792717 36.33772603 26.11510217 33.45371551 20.921875 30.41796875 C12.4106482 26.24861778 3.3002361 25.23228889 -6.07421875 24.96875 C-6.77458755 24.9479689 -7.47495636 24.92718781 -8.19654846 24.90577698 C-10.40698606 24.8410316 -12.61752985 24.78175017 -14.828125 24.72265625 C-16.33790107 24.67939944 -17.84766688 24.63578302 -19.35742188 24.59179688 C-23.03504696 24.48542877 -26.71278791 24.38395623 -30.390625 24.28515625 C-26.03027063 12.90942277 -22.35820785 4.24813626 -11.40625 -1.73046875 C-6.62205717 -3.29214827 -4.42268289 -2.23681773 0 0 Z " fill="#FCFDFE" transform="translate(126.390625,53.71484375)"/>
<path d="M0 0 C5.69187333 5.976467 8.5 11.32345028 8.5 19.625 C3.22 19.625 -2.06 19.625 -7.5 19.625 C-7.9125 18.366875 -8.325 17.10875 -8.75 15.8125 C-10.05846117 12.33555623 -11.08720872 10.3831046 -14.5 8.625 C-18.84467622 6.91816291 -24.08029531 6.74161575 -28.46875 8.34375 C-34.1300797 11.31834696 -35.81782153 14.4707522 -37.6875 20.375 C-39.82516547 31.19013799 -40.25375514 44.83276219 -34.36328125 54.48828125 C-31.81601127 57.85517754 -29.44862226 59.3549753 -25.5 60.625 C-22.84300993 60.93851718 -22.84300993 60.93851718 -20.125 60.875 C-19.23039062 60.88015625 -18.33578125 60.8853125 -17.4140625 60.890625 C-13.76058413 60.64883513 -13.76058413 60.64883513 -7.5 58.625 C-7.5 53.675 -7.5 48.725 -7.5 43.625 C-12.12 43.625 -16.74 43.625 -21.5 43.625 C-21.5 39.995 -21.5 36.365 -21.5 32.625 C-11.6 32.625 -1.7 32.625 8.5 32.625 C8.68441679 37.07661645 8.8432681 41.51488048 8.93945312 45.96728516 C8.97954492 47.47881054 9.03403905 48.9900283 9.10351562 50.50048828 C9.66286567 62.97892962 9.66286567 62.97892962 6.89013672 66.90380859 C4.82198874 68.51083872 2.9025071 69.59480231 0.5 70.625 C-0.48742187 71.10710937 -1.47484375 71.58921875 -2.4921875 72.0859375 C-13.61019549 75.61115954 -26.2245008 77.13475564 -37.125 72.1875 C-45.97759291 66.95196375 -51.87560421 59.62187609 -54.5 49.625 C-54.5 48.305 -54.5 46.985 -54.5 45.625 C-55.16 45.625 -55.82 45.625 -56.5 45.625 C-56.5 38.035 -56.5 30.445 -56.5 22.625 C-55.84 22.625 -55.18 22.625 -54.5 22.625 C-54.438125 21.490625 -54.37625 20.35625 -54.3125 19.1875 C-53.15375025 9.98278365 -47.25115547 3.46348897 -40.1875 -2.0625 C-28.94569208 -9.71752124 -10.61956278 -8.22417268 0 0 Z " fill="#53A6EA" transform="translate(74.5,172.375)"/>
<path d="M0 0 C0.66 0.33 1.32 0.66 2 1 C1.01 2.485 1.01 2.485 0 4 C1.05682983 4.39481567 1.05682983 4.39481567 2.13500977 4.79760742 C5.18883354 6.07925055 7.96658865 7.59139589 10.83984375 9.23828125 C11.97494385 9.88748535 13.11004395 10.53668945 14.27954102 11.20556641 C15.49894263 11.9077353 16.71826047 12.61004969 17.9375 13.3125 C19.19385505 14.03316936 20.45028487 14.75370839 21.70678711 15.47412109 C30.39219187 20.46189083 39.0354838 25.51933283 47.63061523 30.66137695 C52.81438178 33.75316923 58.0633124 36.68577185 63.3737793 39.55419922 C65.74962253 40.86216088 68.07839855 42.22111203 70.3984375 43.625 C71.06230469 44.02074219 71.72617188 44.41648438 72.41015625 44.82421875 C73.75113922 45.62667576 75.08423658 46.44242205 76.41015625 47.26953125 C78.6100395 48.61595142 78.6100395 48.61595142 82 50 C85.62105741 48.90188577 88.82153721 47.08012145 92.11328125 45.234375 C93.10150879 44.68128662 94.08973633 44.12819824 95.10791016 43.55834961 C96.1654248 42.96159424 97.22293945 42.36483887 98.3125 41.75 C99.41899902 41.12810791 100.52549805 40.50621582 101.66552734 39.86547852 C109.19083768 35.62214348 116.67029508 31.30372166 124.125 26.9375 C132.33439333 22.13190188 140.5535469 17.34505218 148.8125 12.625 C149.7917041 12.059021 150.7709082 11.49304199 151.77978516 10.90991211 C153.13595947 10.13852905 153.13595947 10.13852905 154.51953125 9.3515625 C155.71219604 8.66827881 155.71219604 8.66827881 156.92895508 7.97119141 C159 7 159 7 162 7 C161.67 8.32 161.34 9.64 161 11 C164.3 12.98 167.6 14.96 171 17 C167.72497903 19.45626573 164.41548804 21.74888288 161 24 C161.99 24.99 162.98 25.98 164 27 C163.67 27.66 163.34 28.32 163 29 C159 28 159 28 157.16308594 27.31298828 C154.12329643 26.87314515 152.76935917 27.88962611 150.140625 29.4296875 C149.19840088 29.97294678 148.25617676 30.51620605 147.28540039 31.07592773 C145.7828772 31.96646851 145.7828772 31.96646851 144.25 32.875 C142.14985942 34.09265463 140.04959872 35.3101021 137.94921875 36.52734375 C136.92489746 37.12659668 135.90057617 37.72584961 134.84521484 38.34326172 C131.27624878 40.42143262 127.6732051 42.43316457 124.0625 44.4375 C115.09443918 49.45612575 106.23963511 54.67163699 97.37109375 59.86328125 C96.43894043 60.40291504 95.50678711 60.94254883 94.54638672 61.49853516 C92.9926024 62.41471671 91.45307632 63.35644112 89.94189453 64.34130859 C87.16831996 66.1146025 85.50911711 67.03723315 82.17578125 66.79345703 C78.68733743 65.92188243 76.12991982 64.63626602 73.02734375 62.82421875 C71.89071289 62.16687744 70.75408203 61.50953613 69.58300781 60.83227539 C68.36777301 60.11746165 67.1526052 59.40253401 65.9375 58.6875 C64.67990908 57.95665869 63.42176498 57.22676845 62.16308594 56.49780273 C59.63149995 55.0303693 57.10252354 53.55859797 54.57568359 52.08300781 C49.65224001 49.21054751 44.70200493 46.38535274 39.75 43.5625 C38.91218994 43.08337158 38.07437988 42.60424316 37.21118164 42.1105957 C31.11992438 38.62858658 25.01022403 35.1801696 18.88183594 31.76391602 C16.18391232 30.25525616 13.57393702 28.71595801 11 27 C8.97080157 27.25723969 8.97080157 27.25723969 7 28 C6.01 28.33 5.02 28.66 4 29 C3.67 27.68 3.34 26.36 3 25 C3.66 24.67 4.32 24.34 5 24 C1.7 22.02 -1.6 20.04 -5 18 C-1.77085357 14.77085357 1.02830798 13.17318997 5 11 C1.80331012 8.3513141 -1.39486597 6.06007659 -5 4 C-3.35 2.68 -1.7 1.36 0 0 Z " fill="#54A7EA" transform="translate(37,94)"/>
<path d="M0 0 C5.26865994 3.86219564 10.10090297 7.56206107 12 14 C12.495 17.465 12.495 17.465 13 21 C7.39 21 1.78 21 -4 21 C-5 18 -6 15 -7 12 C-12.88193959 10.43148278 -19.49149656 9.8225392 -25.0625 12.4375 C-26.89013772 13.85462668 -26.89013772 13.85462668 -28 15 C-28.07179964 16.51928038 -28.08392007 18.04167482 -28.0625 19.5625 C-28.05347656 20.38878906 -28.04445312 21.21507812 -28.03515625 22.06640625 C-28.02355469 22.70449219 -28.01195312 23.34257812 -28 24 C-25.1690476 25.47758156 -22.33795127 26.65999048 -19.33203125 27.734375 C-18.43806641 28.06179687 -17.54410156 28.38921875 -16.62304688 28.7265625 C-14.77160192 29.40075093 -12.91746974 30.06761187 -11.06054688 30.7265625 C-1.22425899 34.35972252 6.74005899 38.82939737 11.75 48.3125 C14.0838454 55.19734392 13.54890886 60.45529075 10.38671875 66.890625 C6.82048977 72.31531134 0.97354035 75.75176004 -5.1953125 77.5234375 C-17.51351555 79.61650264 -28.18721765 78.48787866 -38.92578125 71.80078125 C-43.42509467 68.44025187 -46.42445499 64.03249344 -47.46484375 58.55078125 C-47.71428393 56.37415941 -47.86543191 54.18673145 -48 52 C-42.72 52 -37.44 52 -32 52 C-31.12109375 54.24609375 -30.2421875 56.4921875 -29.36328125 58.73828125 C-27.60335336 61.65804701 -26.11000147 62.62070556 -23 64 C-19.78556183 64.43489721 -19.78556183 64.43489721 -16.4375 64.3125 C-14.76494141 64.30669922 -14.76494141 64.30669922 -13.05859375 64.30078125 C-10.12886033 64.01267209 -8.42939375 63.61769043 -6 62 C-4.73762269 59.47524538 -4.90143596 57.68799534 -4.9375 54.875 C-4.94652344 53.96492188 -4.95554688 53.05484375 -4.96484375 52.1171875 C-4.97644531 51.41851562 -4.98804688 50.71984375 -5 50 C-7.8309524 48.52241844 -10.66204873 47.34000952 -13.66796875 46.265625 C-14.56193359 45.93820313 -15.45589844 45.61078125 -16.37695312 45.2734375 C-18.22839808 44.59924907 -20.08253026 43.93238813 -21.93945312 43.2734375 C-30.7617924 40.0147925 -38.5433225 35.84397391 -44 28 C-45.88318128 22.19352438 -45.58183362 16.05353044 -43.9375 10.25 C-39.91136138 3.49647716 -34.50731109 0.12525392 -27.09375 -2.30859375 C-18.35391248 -4.26181501 -8.08491314 -4.21419492 0 0 Z " fill="#54A7EA" transform="translate(158,169)"/>
<path d="M0 0 C5.28 0 10.56 0 16 0 C16 26.07 16 52.14 16 79 C10.72 79 5.44 79 0 79 C0 52.93 0 26.86 0 0 Z " fill="#52A6EA" transform="translate(90,167)"/>
<path d="M0 0 C1.125 2.8125 1.125 2.8125 2 6 C1.01 7.485 1.01 7.485 0 9 C0 9.99 0 10.98 0 12 C0.62648438 12.23074219 1.25296875 12.46148437 1.8984375 12.69921875 C4.36428609 13.68322458 6.69480774 14.68029885 9 16 C9.68132451 17.66072849 10.34742127 19.327767 11 21 C23.55845729 31.80537315 44.72561283 29.37305931 60 29 C57.59880921 17.14593819 57.59880921 17.14593819 51.17578125 7.37890625 C42.17509827 2.55142795 30.90837349 3.87791936 21 3.9375 C19.54297029 3.94252424 18.0859389 3.94708551 16.62890625 3.95117188 C13.0859023 3.96210612 9.54296203 3.97932 6 4 C6.33 2.68 6.66 1.36 7 0 C12.04958528 -0.09997656 17.09857603 -0.17198266 22.14892578 -0.21972656 C23.86159317 -0.23965999 25.57419414 -0.26681705 27.28662109 -0.30175781 C39.38550946 -0.54217991 50.52605798 -0.47803681 60.5625 7.25 C64.18754348 10.76996975 65.76299925 14.1627732 67 19 C67.21398437 19.69609375 67.42796875 20.3921875 67.6484375 21.109375 C68.78669628 25.04154171 69.3788921 28.09313904 68 32 C62.21235012 37.78764988 50.51484881 37.38523087 42.75 37.5 C36.22352965 37.5 31.66900037 37.14608647 26.26171875 33.23046875 C23.07546205 31.49701303 20.09128473 31.32392649 16.5 30.9375 C5.54649604 29.7022246 0.23451216 26.96705871 -7.0546875 18.6328125 C-9.6529829 15.11624403 -11.64218766 11.6697909 -12.5625 7.375 C-12 5 -12 5 -9.1875 2.75 C-5.84922978 0.91722419 -3.80675037 0 0 0 Z " fill="#F8FBFE" transform="translate(87,81)"/>
<path d="M0 0 C4.29 0 8.58 0 13 0 C13 5.28 13 10.56 13 16 C18.61 16 24.22 16 30 16 C30 19.96 30 23.92 30 28 C24.39 28 18.78 28 13 28 C13 33.61 13 39.22 13 45 C8.71 45 4.42 45 0 45 C0 39.39 0 33.78 0 28 C-5.28 28 -10.56 28 -16 28 C-16 24.04 -16 20.08 -16 16 C-10.72 16 -5.44 16 0 16 C0 10.72 0 5.44 0 0 Z " fill="#52A6EA" transform="translate(191,184)"/>
<path d="M0 0 C0.69179855 -0.00191345 1.38359711 -0.0038269 2.09635925 -0.00579834 C3.55976729 -0.00715834 5.02318746 -0.00347479 6.48657227 0.00488281 C8.712032 0.01553674 10.93667554 0.0050071 13.16210938 -0.0078125 C14.58724135 -0.00648992 16.01237282 -0.00392549 17.4375 0 C19.37266479 0.00338379 19.37266479 0.00338379 21.34692383 0.00683594 C26.16393459 0.35591855 29.65198168 1.33120597 33.54296875 4.203125 C37.27959482 9.02140598 39.91796875 15.09863855 39.91796875 21.265625 C9.11469936 22.10972808 9.11469936 22.10972808 -1.08203125 13.265625 C-1.85546875 11.96625 -1.85546875 11.96625 -2.64453125 10.640625 C-4.76561194 7.13623082 -7.2805815 6.62840887 -11.08203125 5.265625 C-9.15917966 -0.50292977 -5.38916511 0.00944816 0 0 Z " fill="#F8FBFE" transform="translate(102.08203125,86.734375)"/>
<path d="M0 0 C3.25204941 1.79194559 4.50298243 3.12430237 6.3125 6.3125 C7.46915989 10.83398868 7.72444678 14.48211151 5.6875 18.75 C3.24550447 22.00599404 1.91585593 23.69471469 -2 25 C-8.73546047 25.78580372 -8.73546047 25.78580372 -12.04296875 23.73046875 C-17.76289748 18.88327141 -17.76289748 18.88327141 -18.2734375 14.828125 C-18.58137554 7.01123631 -18.58137554 7.01123631 -15.625 3.4375 C-10.89052137 -0.95880159 -6.24975052 -0.65026306 0 0 Z " fill="#FCFDFE" transform="translate(96,30)"/>
<path d="M0 0 C3.6875 1.5 3.6875 1.5 6 3 C4.54685114 6.39068068 2.9594592 8.76040926 0 11 C-5.72847892 11.99146751 -8.91557584 10.22275654 -13.49609375 7.09375 C-13.99238281 6.7328125 -14.48867187 6.371875 -15 6 C-14.6875 4.125 -14.6875 4.125 -14 2 C-9.54359745 -0.97093503 -5.2291213 -0.51397346 0 0 Z " fill="#56A8EA" transform="translate(124,90)"/>
<path d="M0 0 C0.66 0.33 1.32 0.66 2 1 C0.549046 4.82524236 -1.38181932 6.19090966 -5 8 C-5.66 8 -6.32 8 -7 8 C-7.33 6.68 -7.66 5.36 -8 4 C-6.71349294 3.30289269 -5.42059335 2.61757124 -4.125 1.9375 C-3.40570313 1.55464844 -2.68640625 1.17179688 -1.9453125 0.77734375 C-1.30335938 0.52082031 -0.66140625 0.26429688 0 0 Z " fill="#5BAAEB" transform="translate(150,153)"/>
<path d="M0 0 C0.33 0.99 0.66 1.98 1 3 C-1.97 4.65 -4.94 6.3 -8 8 C-8.33 6.68 -8.66 5.36 -9 4 C-3.375 0 -3.375 0 0 0 Z " fill="#5CABEB" transform="translate(166,145)"/>
<path d="M0 0 C0.66 1.32 1.32 2.64 2 4 C-3.41538462 8.06153846 -3.41538462 8.06153846 -6.375 7.75 C-6.91125 7.5025 -7.4475 7.255 -8 7 C-6.5361389 2.60841671 -4.02168662 2.12052567 0 0 Z " fill="#5DABEB" transform="translate(179,136)"/>
<path d="M0 0 C3.95820859 0.56545837 6.6659053 1.80902348 10 4 C9.67 4.99 9.34 5.98 9 7 C5.59687262 5.94124926 2.98646769 4.99097846 0 3 C0 2.01 0 1.02 0 0 Z " fill="#5BAAEA" transform="translate(73,145)"/>
<path d="M0 0 C3.45925163 1.2491742 6.14693203 2.67527795 9 5 C8.67 5.99 8.34 6.98 8 8 C5.0280615 6.87548273 2.66559313 5.77706209 0 4 C0 2.68 0 1.36 0 0 Z " fill="#5AAAEA" transform="translate(59,136)"/>
<path d="M0 0 C0.7734375 0.61875 0.7734375 0.61875 1.5625 1.25 C-1.5629959 3.89465038 -4.52538267 5.09414715 -8.4375 6.25 C-8.7675 5.26 -9.0975 4.27 -9.4375 3.25 C-3.0375 -0.93461538 -3.0375 -0.93461538 0 0 Z " fill="#5DABEB" transform="translate(194.4375,129.75)"/>
<path d="M0 0 C1.31602523 0.61754259 2.62773556 1.24428742 3.9375 1.875 C4.66839844 2.22304687 5.39929687 2.57109375 6.15234375 2.9296875 C8 4 8 4 9 6 C8.34 6.66 7.68 7.32 7 8 C4.36 6.68 1.72 5.36 -1 4 C-0.67 2.68 -0.34 1.36 0 0 Z " fill="#5DABEB" transform="translate(45,128)"/>
<path d="M0 0 C3.0831351 1.19899698 6.06279492 2.47700477 9 4 C8.67 4.99 8.34 5.98 8 7 C4.51460083 6.35455571 1.97180943 4.89865603 -1 3 C-0.67 2.01 -0.34 1.02 0 0 Z " fill="#57A8EA" transform="translate(88,153)"/>
<path d="M0 0 C3.3 0 6.6 0 10 0 C9.34 1.32 8.68 2.64 8 4 C5 5 5 5 2.3125 3.6875 C1.549375 3.130625 0.78625 2.57375 0 2 C0 1.34 0 0.68 0 0 Z " fill="#F0F7FD" transform="translate(114,93)"/>
<path d="M0 0 C1.32 0.99 2.64 1.98 4 3 C-1.75 6 -1.75 6 -4 6 C-4.33 5.01 -4.66 4.02 -5 3 C-3.35 2.01 -1.7 1.02 0 0 Z " fill="#60ADEB" transform="translate(204,122)"/>
<path d="M0 0 C2.6875 0.875 2.6875 0.875 5 2 C4.67 3.32 4.34 4.64 4 6 C1.08482708 4.92598892 -0.77810176 4.22189824 -3 2 C-2.01 1.34 -1.02 0.68 0 0 Z " fill="#63AEEB" transform="translate(35,122)"/>
</svg>
